<svg width="16" height="16" viewBox="0 0 16 16" fill="none" xmlns="http://www.w3.org/2000/svg">
<path opacity="0.6" d="M8.00004 2.08398C9.27691 2.08398 10.4567 2.49153 11.424 3.18272L10.5862 4.02048C9.84338 3.53539 8.95576 3.25065 8.00004 3.25065C5.37683 3.25065 3.25004 5.37744 3.25004 8.00065C3.25004 10.6239 5.37683 12.7507 8.00004 12.7507C10.0702 12.7507 11.8228 11.4252 12.4747 9.58432L12.8289 8.58398H11.7677H8.75004V7.41732H13.25V7.44498H13.8901C13.9076 7.62826 13.9167 7.81357 13.9167 8.00065C13.9167 11.2681 11.2675 13.9173 8.00004 13.9173C4.73259 13.9173 2.08337 11.2681 2.08337 8.00065C2.08337 4.7332 4.73259 2.08398 8.00004 2.08398Z" fill="white" stroke="white" stroke-width="1.5"/>
<path opacity="0.85" d="M2.10205 4.89765L4.29238 6.50398C4.88505 5.03665 6.32038 4.00065 8.00005 4.00065C9.01972 4.00065 9.94738 4.38532 10.6537 5.01365L12.5394 3.12798C11.3487 2.01832 9.75605 1.33398 8.00005 1.33398C5.43938 1.33398 3.21872 2.77965 2.10205 4.89765Z" fill="white"/>
<path d="M7.99994 14.6669C9.72194 14.6669 11.2866 14.0079 12.4696 12.9362L10.4063 11.1902C9.73694 11.6972 8.90494 12.0002 7.99994 12.0002C6.26594 12.0002 4.79361 10.8946 4.23894 9.35156L2.06494 11.0266C3.16827 13.1856 5.40894 14.6669 7.99994 14.6669Z" fill="white"/>
</svg>
