<svg width="17" height="16" viewBox="0 0 17 16" fill="none" xmlns="http://www.w3.org/2000/svg">
<g clip-path="url(#clip0_1103_7515)">
<path d="M8.66229 3.09333C10.1645 3.09333 11.1778 3.74222 11.7556 4.28444L14.0134 2.08C12.6267 0.791111 10.8223 0 8.66229 0C5.5334 0 2.83118 1.79556 1.51562 4.40889L4.10229 6.41778C4.75118 4.48889 6.54674 3.09333 8.66229 3.09333Z" fill="#EA4335"/>
<path d="M16.3402 8.17779C16.3402 7.52001 16.2868 7.04001 16.1713 6.54224H8.66016V9.51113H13.069C12.9802 10.2489 12.5002 11.36 11.4335 12.1067L13.9579 14.0622C15.469 12.6667 16.3402 10.6133 16.3402 8.17779Z" fill="#4285F4"/>
<path d="M4.10904 9.58227C3.94016 9.08449 3.84238 8.55116 3.84238 8.00005C3.84238 7.44894 3.94016 6.9156 4.10016 6.41782L1.51349 4.40894C0.971267 5.49338 0.660156 6.71116 0.660156 8.00005C0.660156 9.28894 0.971267 10.5067 1.51349 11.5912L4.10904 9.58227Z" fill="#FBBC05"/>
<path d="M8.66122 16.0001C10.8212 16.0001 12.6345 15.2889 13.959 14.0623L11.4345 12.1067C10.759 12.5778 9.85233 12.9067 8.66122 12.9067C6.54566 12.9067 4.7501 11.5112 4.1101 9.58228L1.52344 11.5912C2.83899 14.2045 5.53233 16.0001 8.66122 16.0001Z" fill="#34A853"/>
</g>
<defs>
<clipPath id="clip0_1103_7515">
<rect width="16" height="16" fill="white" transform="translate(0.5)"/>
</clipPath>
</defs>
</svg>
