<svg version="1.1" id="Layer_1" xmlns="http://www.w3.org/2000/svg" xmlns:xlink="http://www.w3.org/1999/xlink" x="0px" y="0px"
	 width="100%" viewBox="0 0 685 181" enable-background="new 0 0 685 181" xml:space="preserve">
<path fill="#0A0909" opacity="1.000000" stroke="none" 
	d="
M338.465515,128.773010 
	C338.463470,104.362816 338.463470,80.423523 338.463470,56.229141 
	C344.132019,56.229141 349.359680,56.229141 354.897095,56.229141 
	C354.897095,71.108215 354.897095,85.851624 354.897095,102.132576 
	C360.484772,95.503357 365.318542,90.007248 369.856537,84.276894 
	C371.904968,81.690186 374.071564,80.529015 377.434387,80.746063 
	C382.204987,81.053970 387.010254,80.824211 393.009735,80.824211 
	C385.219635,89.980812 378.094574,98.355721 370.621277,107.139984 
	C378.510223,116.325371 386.362335,125.467903 395.010742,135.537552 
	C387.635742,135.537552 381.269958,135.673676 374.920593,135.411850 
	C373.779663,135.364822 372.533264,133.819382 371.630402,132.722977 
	C366.345215,126.304985 361.147644,119.814812 355.299744,112.581123 
	C355.299744,120.555649 355.299744,127.733833 355.299744,135.226959 
	C349.540649,135.226959 344.317657,135.226959 338.467529,135.226959 
	C338.467529,133.122177 338.467529,131.183029 338.465515,128.773010 
z"/>
<path fill="#0A0909" opacity="1.000000" stroke="none" 
	d="
M214.747360,111.355789 
	C213.649994,96.375916 221.023407,84.028076 233.055038,80.659447 
	C241.228561,78.371010 248.832230,79.711853 255.774734,85.861046 
	C255.927063,83.986427 256.038971,82.609207 256.168945,81.009567 
	C261.506653,81.009567 266.762054,81.009567 272.285278,81.009567 
	C272.285278,99.095406 272.285278,117.011719 272.285278,135.239822 
	C266.987396,135.239822 261.892456,135.239822 256.342926,135.239822 
	C256.163757,133.904175 255.962250,132.402100 255.694992,130.409714 
	C247.700867,137.247650 238.985214,138.386169 229.991867,134.227859 
	C220.612900,129.891266 215.959106,121.909332 214.747360,111.355789 
M242.652649,94.841217 
	C236.915741,95.242905 233.057068,98.227219 230.951080,103.495560 
	C229.036957,108.283943 230.024658,112.717133 233.217056,116.556595 
	C237.370773,121.552216 244.572571,122.783798 250.474823,119.779579 
	C255.914703,117.010696 257.480591,112.198502 256.000671,102.797798 
	C255.331085,98.544456 250.373215,95.389374 242.652649,94.841217 
z"/>
<path fill="#0A0909" opacity="1.000000" stroke="none" 
	d="
M299.619141,97.401390 
	C292.899994,104.037552 292.426544,111.823677 298.099396,117.390297 
	C304.351807,123.525650 311.796570,122.695694 319.636322,114.719635 
	C323.683868,116.970238 327.832886,119.277252 331.949036,121.565994 
	C327.953064,131.890091 315.303497,138.018784 302.382935,136.107132 
	C289.977356,134.271652 279.935699,122.940826 279.050934,109.779709 
	C278.170258,96.678810 286.749451,84.584091 299.601074,80.808701 
	C312.438477,77.037491 325.604523,82.362503 332.255493,94.402214 
	C328.130096,96.709877 323.994873,99.023041 319.914978,101.305260 
	C311.181213,93.798187 307.248566,93.006020 299.619141,97.401390 
z"/>
<path fill="#0A0909" opacity="1.000000" stroke="none" 
	d="
M144.894867,119.192963 
	C151.104263,122.867897 157.438339,124.879051 164.263687,123.929214 
	C166.347626,123.639206 168.188354,121.601463 170.140457,120.364113 
	C168.499451,118.832466 167.103592,116.718239 165.161880,115.901199 
	C161.986816,114.565201 158.434525,114.151665 155.079865,113.211609 
	C144.644012,110.287239 140.591003,105.576340 140.865311,96.825142 
	C141.114716,88.868263 147.081833,82.106483 156.289810,80.331856 
	C164.272064,78.793449 172.158951,79.612473 179.649048,83.227875 
	C182.710709,84.705711 184.068787,86.383659 182.237228,89.775475 
	C181.068008,91.940758 180.370438,94.360741 179.416733,96.779808 
	C175.748322,95.381020 172.308380,93.761185 168.693909,92.793037 
	C166.020065,92.076836 163.059860,91.766930 160.341461,92.130394 
	C158.729980,92.345856 157.340286,94.220085 155.850861,95.348457 
	C157.004242,96.767441 157.880630,98.897194 159.362015,99.474495 
	C164.146698,101.339096 169.237778,102.407867 174.053513,104.204811 
	C179.720764,106.319473 184.340668,109.646866 185.245956,116.331467 
	C186.537979,125.871567 180.486862,134.046112 170.203812,135.892654 
	C160.778961,137.585068 151.701309,136.108215 143.000458,131.982681 
	C139.927704,130.525726 139.045624,128.838104 140.820847,125.849274 
	C142.138626,123.630608 143.308212,121.323936 144.894867,119.192963 
z"/>
<path fill="#2B343F" opacity="1.000000" stroke="none" 
	d="
M589.264221,80.517021 
	C589.735291,82.183090 590.091431,83.459503 590.718994,85.709076 
	C591.530762,83.517212 592.174622,82.133614 592.559204,80.681320 
	C594.729980,72.483299 596.839844,64.269142 598.967773,56.059776 
	C601.036316,48.079250 601.034912,48.078880 610.069641,49.334637 
	C609.578735,51.373051 609.208069,53.398319 608.601685,55.350357 
	C604.705811,67.892403 600.577759,80.366173 596.927734,92.978630 
	C595.685730,97.270523 592.901306,96.884590 589.677429,97.101158 
	C586.084351,97.342514 585.171997,95.399422 584.495239,92.490135 
	C582.091736,82.157326 579.532043,71.860840 576.217590,61.552586 
	C573.799500,71.612106 571.362732,81.667191 568.975342,91.733994 
	C568.308533,94.545876 567.943054,97.167503 563.872925,97.134445 
	C560.051147,97.103409 557.415649,96.731003 556.175659,92.288254 
	C552.645996,79.641518 548.656738,67.123230 544.875977,54.546104 
	C544.403992,52.975746 544.097900,51.355515 543.718628,49.773655 
	C551.602783,47.422070 552.984253,48.086056 554.844238,55.245838 
	C557.391235,65.050224 559.846313,74.878487 563.146240,84.906754 
	C563.684082,82.980247 564.285217,81.068832 564.749146,79.124680 
	C566.833435,70.388924 569.080688,61.684319 570.844238,52.883335 
	C571.609497,49.063972 573.741821,48.786381 576.872192,48.713642 
	C580.127991,48.637989 582.031738,49.362911 582.789795,52.931213 
	C584.724243,62.035988 587.006287,71.066902 589.264221,80.517021 
z"/>
<path fill="#030202" opacity="1.000000" stroke="none" 
	d="
M208.169617,118.997803 
	C208.169830,124.636742 208.169830,129.776184 208.169830,135.210938 
	C202.770691,135.210938 197.686172,135.210938 192.192490,135.210938 
	C192.192490,109.043510 192.192490,82.864853 192.192490,56.339798 
	C197.165649,56.339798 202.388016,56.339798 208.169418,56.339798 
	C208.169418,77.064522 208.169418,97.781403 208.169617,118.997803 
z"/>
<path fill="#2E3540" opacity="1.000000" stroke="none" 
	d="
M645.303650,73.707779 
	C649.791382,78.007912 650.427979,82.946045 648.612610,88.190620 
	C646.607727,93.982727 641.871094,97.220512 636.200684,97.718918 
	C630.515320,98.218636 624.593628,97.672134 618.957336,96.615005 
	C613.556702,95.602089 613.194153,94.284859 613.970520,87.721138 
	C615.865417,88.181488 617.667297,88.853951 619.515320,89.023468 
	C624.718201,89.500717 629.980347,90.269020 635.132690,89.852760 
	C636.934021,89.707230 639.657959,86.533432 639.808472,84.576973 
	C639.951233,82.721443 637.688904,79.901474 635.752380,78.836494 
	C632.303345,76.939819 628.297058,76.061615 624.533081,74.731300 
	C617.442383,72.225197 613.888489,67.653831 614.000000,61.220608 
	C614.104492,55.196461 618.388245,50.176937 625.198669,48.120045 
	C631.572205,46.195122 637.734131,47.464977 643.786743,49.526627 
	C647.637268,50.838200 646.939026,53.926743 646.544189,57.652981 
	C644.128479,56.987022 642.156189,56.120533 640.125916,55.951591 
	C636.044678,55.611992 631.841492,55.115284 627.873230,55.782108 
	C626.108093,56.078712 623.826904,58.909317 623.571472,60.828262 
	C623.363464,62.390594 625.445007,65.079369 627.170471,65.927444 
	C632.956787,68.771484 639.038330,71.014801 645.303650,73.707779 
z"/>
<path fill="#3BB582" opacity="1.000000" stroke="none" 
	d="
M77.414040,48.926170 
	C86.281212,48.912086 89.618179,52.194572 89.660896,60.625244 
	C89.697983,67.945854 89.721710,75.267319 89.652336,82.587471 
	C89.587944,89.383804 85.660286,93.801971 79.715843,93.950745 
	C73.759720,94.099808 69.334000,89.771202 69.166046,83.145233 
	C68.967934,75.330231 68.949799,67.501846 69.170105,59.688179 
	C69.316238,54.505245 71.321312,50.296402 77.414040,48.926170 
z"/>
<path fill="#3FC3E9" opacity="1.000000" stroke="none" 
	d="
M64.361778,80.867294 
	C65.192581,89.500305 61.376789,93.876564 53.194168,93.977478 
	C45.718655,94.069672 38.239609,94.090179 30.764887,93.970016 
	C23.350470,93.850830 19.109440,89.979248 19.243799,83.739174 
	C19.383278,77.261284 24.044748,73.578880 31.414051,73.764702 
	C39.030746,73.956787 46.655689,73.960335 54.274834,73.867126 
	C59.210510,73.806747 62.522667,75.867607 64.361778,80.867294 
z"/>
<path fill="#E9B339" opacity="1.000000" stroke="none" 
	d="
M114.009537,112.986778 
	C114.009544,112.986778 113.801239,113.268272 113.471031,113.611221 
	C110.518593,115.544220 107.964890,118.350151 105.261627,118.502518 
	C96.161545,119.015411 86.975555,119.025734 77.887245,118.352890 
	C72.191551,117.931213 69.389366,113.368256 69.859474,107.678719 
	C70.276703,102.629150 74.078201,99.143852 79.630760,99.064407 
	C87.948105,98.945404 96.269402,98.926758 104.586647,99.039764 
	C109.806526,99.110680 112.963509,101.882767 113.829399,107.016731 
	C114.157410,108.961548 113.964828,110.994179 114.009537,112.986778 
z"/>
<path fill="#2D3641" opacity="1.000000" stroke="none" 
	d="
M531.042053,91.900024 
	C529.816284,92.516853 528.640259,93.276360 527.355652,93.724625 
	C522.927795,95.269684 518.519897,97.708984 513.998230,97.970482 
	C505.184692,98.480164 499.967865,93.377220 499.359344,85.223679 
	C498.746613,77.013832 503.901123,70.027328 512.120972,68.998840 
	C516.815613,68.411438 521.685486,68.867439 526.440186,69.276207 
	C528.640869,69.465401 530.075195,69.670670 530.257568,66.429810 
	C531.348450,65.119072 532.361755,64.338699 532.569031,63.383442 
	C533.049988,61.167202 533.141479,58.866467 533.465637,55.921207 
	C535.613525,58.220356 536.931030,59.630569 538.248474,61.040779 
	C538.454468,67.138542 538.595825,73.239471 538.894409,79.332703 
	C539.039124,82.285721 539.478455,85.224297 539.485779,88.651993 
	C536.472107,90.056389 533.757080,90.978210 531.042053,91.900024 
M509.013916,82.675354 
	C509.519470,89.035355 512.159851,91.426926 518.131714,90.934067 
	C525.928040,90.290642 530.175903,84.889786 529.333130,75.932152 
	C525.720215,75.640388 521.964478,75.011459 518.230286,75.120178 
	C513.828552,75.248344 510.083527,76.871063 509.013916,82.675354 
z"/>
<path fill="#F99909" opacity="1.000000" stroke="none" 
	d="
M529.006653,136.981628 
	C529.006653,136.981628 528.957825,136.603149 528.918091,136.052673 
	C526.550781,134.048477 524.247253,132.554321 521.890259,131.149872 
	C517.601562,128.594406 513.281128,126.092209 508.973999,123.567780 
	C509.237823,123.025803 509.501648,122.483833 509.765472,121.941864 
	C511.106720,122.261177 512.479004,122.486153 513.784241,122.914986 
	C522.855591,125.895256 531.721985,129.881836 541.015198,131.723450 
	C559.589417,135.404266 578.494263,136.602402 597.335510,133.821335 
	C605.012634,132.688171 612.465088,130.032974 620.324463,127.984024 
	C621.421570,127.636734 622.213806,127.375656 623.123108,127.248497 
	C623.465698,127.207169 623.691284,127.031929 623.957275,126.897430 
	C623.997620,126.938171 623.890503,126.897102 624.271729,126.930695 
	C626.088867,127.981934 627.524841,128.999588 628.988770,130.328094 
	C629.054382,130.843597 629.092102,131.048233 628.999146,131.342865 
	C628.868591,131.432831 628.577271,131.558243 628.198975,131.436401 
	C626.420959,131.772644 624.997314,132.168610 623.625793,132.699448 
	C617.433350,135.096268 611.438843,138.427017 605.028809,139.738922 
	C595.822693,141.623062 586.340698,142.414368 576.934570,143.003235 
	C564.127502,143.805008 551.524170,142.475372 539.356018,137.869247 
	C536.823425,136.910538 533.786682,137.283524 530.652649,137.023956 
	C529.884216,136.997284 529.445435,136.989456 529.006653,136.981628 
z"/>
<path fill="#FBD7DE" opacity="1.000000" stroke="none" 
	d="
M67.015900,136.968140 
	C61.767387,146.370392 59.777168,147.298523 49.588192,145.095505 
	C45.313229,144.171188 42.081562,140.140762 42.078438,134.940201 
	C42.075363,129.822571 42.616436,124.705688 42.872620,119.586166 
	C42.953354,117.972794 42.885216,116.351967 42.885216,113.604149 
	C41.339874,114.961113 40.452553,115.510254 39.870934,116.288002 
	C35.852127,121.662010 29.917103,121.987885 24.508810,120.629448 
	C20.198874,119.546883 17.978424,115.154861 17.302286,110.470520 
	C16.168736,102.617180 20.491219,97.315117 28.328274,96.979904 
	C29.799990,96.916954 31.252636,96.482658 32.721977,96.275803 
	C37.309456,95.629967 41.764198,95.370705 43.455135,99.762672 
	C47.571499,98.761246 51.160271,97.680557 54.826775,97.056908 
	C58.223171,96.479195 61.287117,97.223961 63.797745,100.067078 
	C64.767113,101.164825 66.733276,101.382339 68.440460,102.346092 
	C68.393761,106.494408 67.031189,110.709579 68.234192,113.981445 
	C69.372551,117.077522 73.203735,119.183517 76.458611,122.308777 
	C72.915718,121.734489 69.739098,121.219574 66.427025,120.682701 
	C66.623154,123.303047 66.898415,125.889229 66.988754,128.481842 
	C67.087204,131.307495 67.014175,134.139114 67.015900,136.968140 
M44.974922,137.063766 
	C47.669827,142.288269 51.956024,144.778946 56.441975,143.727203 
	C61.725876,142.488388 64.310417,138.897919 64.338867,132.598373 
	C64.373489,124.934990 64.376167,117.271133 64.331757,109.607834 
	C64.295341,103.324081 60.956665,99.299637 55.568607,98.905144 
	C49.377312,98.451836 44.758457,101.818253 44.471821,108.360306 
	C44.065140,117.642174 44.623257,126.966309 44.974922,137.063766 
M39.143890,110.899765 
	C39.143890,107.009712 39.143890,103.119659 39.143890,99.331245 
	C26.074974,97.696304 21.300526,99.613258 19.732512,106.765404 
	C18.569101,112.072044 21.204069,116.554146 26.525412,118.320160 
	C31.892466,120.101341 36.289711,117.793694 39.143890,110.899765 
z"/>
<path fill="#F9E2C1" opacity="1.000000" stroke="none" 
	d="
M67.155243,137.279510 
	C67.014175,134.139114 67.087204,131.307495 66.988754,128.481842 
	C66.898415,125.889229 66.623154,123.303047 66.427025,120.682701 
	C69.739098,121.219574 72.915718,121.734489 76.458611,122.308777 
	C73.203735,119.183517 69.372551,117.077522 68.234192,113.981445 
	C67.031189,110.709579 68.393761,106.494408 68.813866,102.357300 
	C73.669586,96.684090 79.386002,95.492180 86.349121,96.481110 
	C92.622772,97.372131 99.094475,97.040237 105.475151,96.958939 
	C112.151253,96.873886 117.981125,104.954048 116.903488,110.253609 
	C116.698692,111.260765 115.531128,112.072151 114.408653,112.980316 
	C113.964828,110.994179 114.157410,108.961548 113.829399,107.016731 
	C112.963509,101.882767 109.806526,99.110680 104.586647,99.039764 
	C96.269402,98.926758 87.948105,98.945404 79.630760,99.064407 
	C74.078201,99.143852 70.276703,102.629150 69.859474,107.678719 
	C69.389366,113.368256 72.191551,117.931213 77.887245,118.352890 
	C86.975555,119.025734 96.161545,119.015411 105.261627,118.502518 
	C107.964890,118.350151 110.518593,115.544220 113.440887,113.783707 
	C114.386497,116.679016 113.781342,118.831429 110.104820,119.164543 
	C104.221420,119.697609 98.355309,120.420891 92.472420,120.960480 
	C90.560883,121.135811 88.619705,120.988022 85.027000,120.988022 
	C90.619904,126.198769 93.133560,131.468170 91.048645,137.377487 
	C90.040466,140.235001 87.506081,143.230850 84.852234,144.698044 
	C78.146736,148.405243 72.052902,145.637329 67.155243,137.279510 
M81.717682,143.298981 
	C86.412521,142.024124 88.943207,139.190491 89.170525,134.100479 
	C89.357712,129.909195 87.754257,126.309769 84.157768,125.328423 
	C79.892685,124.164658 75.158249,124.685883 70.624954,124.606361 
	C70.259705,124.599945 69.769867,125.549202 69.518356,126.132195 
	C66.001251,134.284744 72.098846,143.514130 81.717682,143.298981 
z"/>
<path fill="#47C3E6" opacity="1.000000" stroke="none" 
	d="
M55.329681,69.027435 
	C50.342918,68.559746 46.407948,67.194077 44.813721,62.313332 
	C43.378593,57.919678 43.842144,53.403473 47.869385,51.234303 
	C51.011486,49.541889 55.568707,48.792217 58.913002,49.722752 
	C61.342102,50.398640 62.916752,54.439728 64.650200,57.123840 
	C65.109879,57.835617 64.773438,59.077316 64.761856,60.075230 
	C64.643074,70.310394 66.346069,68.847351 55.329681,69.027435 
z"/>
<path fill="#3CB381" opacity="1.000000" stroke="none" 
	d="
M112.517502,77.525192 
	C117.164001,86.867218 112.888092,93.864403 102.838547,94.015343 
	C100.193321,94.055077 97.546997,94.021332 95.014633,94.021332 
	C92.638763,85.275566 94.283005,78.057312 99.132729,75.112434 
	C103.246704,72.614326 107.860268,73.353554 112.517502,77.525192 
z"/>
<path fill="#FDE4B6" opacity="1.000000" stroke="none" 
	d="
M623.006104,127.114578 
	C622.213806,127.375656 621.421570,127.636734 619.898865,127.908333 
	C615.923340,128.514389 612.700867,129.333786 609.428955,129.665222 
	C597.615479,130.861908 585.785339,131.894394 573.961487,132.988876 
	C575.270264,132.350403 576.536560,131.277176 577.894775,131.144394 
	C586.332642,130.319458 594.931396,130.429459 603.204834,128.825806 
	C612.182434,127.085640 620.869080,123.833961 629.670227,121.200081 
	C632.055969,120.486092 634.396973,119.622650 636.758545,118.827797 
	C636.683228,118.303764 636.607910,117.779724 636.532593,117.255684 
	C635.235352,117.255684 633.880188,117.498260 632.652893,117.205231 
	C630.093140,116.594025 627.600891,115.699760 625.080933,114.921783 
	C627.168823,112.661301 629.102417,108.656471 631.372620,108.455574 
	C639.339294,107.750565 647.421936,108.354889 655.746826,108.983368 
	C656.053040,109.670807 656.072815,109.837036 656.092651,110.003273 
	C656.092651,110.003273 655.984192,110.128441 655.500977,110.116386 
	C650.962708,110.039871 646.907593,109.975410 642.445312,109.940582 
	C639.702881,110.331223 637.367676,110.692223 634.656616,111.011810 
	C632.215088,111.883499 630.149475,112.796608 628.083801,113.709709 
	C628.221985,114.172081 628.360168,114.634445 628.498352,115.096809 
	C634.328064,115.096809 640.157715,115.096809 646.230652,115.229340 
	C646.978882,115.585793 647.483887,115.809708 648.080688,116.260696 
	C648.364136,116.767853 648.620300,116.963531 648.962463,117.465668 
	C649.035034,118.898720 649.086182,119.940910 649.018311,121.304825 
	C648.907837,122.081543 648.916443,122.536537 648.853027,123.252579 
	C648.731873,123.868752 648.682861,124.223885 648.377686,124.833244 
	C646.675537,129.069092 645.229492,133.050720 643.783447,137.032318 
	C643.390320,135.387375 642.340210,133.559647 642.736755,132.134369 
	C643.650146,128.851364 645.392151,125.807335 646.511536,122.567368 
	C646.799805,121.732925 646.026245,120.531624 645.409973,118.304756 
	C643.747681,120.978043 642.845947,122.428223 641.554993,123.585068 
	C640.285645,119.691750 638.159485,120.599289 635.567261,121.883209 
	C631.426941,123.578659 627.658752,125.237869 623.890503,126.897095 
	C623.890503,126.897102 623.997620,126.938171 623.722778,126.937943 
	C623.447998,126.937706 623.006104,127.114571 623.006104,127.114578 
z"/>
<path fill="#E8A53C" opacity="1.000000" stroke="none" 
	d="
M573.552124,133.029266 
	C585.785339,131.894394 597.615479,130.861908 609.428955,129.665222 
	C612.700867,129.333786 615.923340,128.514389 619.594116,127.994545 
	C612.465088,130.032974 605.012634,132.688171 597.335510,133.821335 
	C578.494263,136.602402 559.589417,135.404266 541.015198,131.723450 
	C531.721985,129.881836 522.855591,125.895256 513.784241,122.914986 
	C512.479004,122.486153 511.106720,122.261177 509.765472,121.941864 
	C509.501648,122.483833 509.237823,123.025803 508.973999,123.567780 
	C513.281128,126.092209 517.601562,128.594406 521.890259,131.149872 
	C524.247253,132.554321 526.550781,134.048477 528.880737,135.865555 
	C528.173584,136.142410 527.464172,136.055893 526.213440,135.688354 
	C524.743530,135.030563 523.814941,134.653809 522.886292,134.277039 
	C522.314636,134.052689 521.742981,133.828354 520.689636,133.279388 
	C517.789795,131.658005 515.371643,130.361252 512.953491,129.064514 
	C512.498108,128.728104 512.042664,128.391693 511.124329,127.896828 
	C510.661407,127.738373 510.249084,127.729904 510.249084,127.729904 
	C510.249084,127.729904 510.159454,127.994797 510.090637,127.552925 
	C508.705994,126.351418 507.390106,125.591789 506.074249,124.832161 
	C505.344666,124.205879 504.615112,123.579590 503.491455,122.595650 
	C502.304169,121.311783 501.511017,120.385574 500.831543,119.060547 
	C502.045044,118.051666 503.144867,117.441597 504.604065,116.874908 
	C516.339905,120.857040 527.716370,124.795799 539.092896,128.734543 
	C539.501221,128.836853 539.909546,128.939163 540.920776,129.314178 
	C550.691650,130.694611 559.859558,131.802353 569.027466,132.910095 
	C570.399231,132.963272 571.770996,133.016464 573.552124,133.029266 
z"/>
<path fill="#2C333E" opacity="1.000000" stroke="none" 
	d="
M538.315186,60.643433 
	C536.931030,59.630569 535.613525,58.220356 533.465637,55.921207 
	C533.141479,58.866467 533.049988,61.167202 532.569031,63.383442 
	C532.361755,64.338699 531.348450,65.119072 530.327393,65.989273 
	C527.491089,55.629284 523.760071,53.322338 513.003052,55.704895 
	C509.955170,56.379959 506.978058,57.374390 504.014648,58.209339 
	C501.438477,53.520969 501.972229,50.964542 506.591278,50.031315 
	C512.825806,48.771717 519.296631,47.668930 525.591980,47.982944 
	C533.251648,48.365017 536.797607,52.525536 538.315186,60.643433 
z"/>
<path fill="#E8A53C" opacity="1.000000" stroke="none" 
	d="
M530.982300,137.042801 
	C533.786682,137.283524 536.823425,136.910538 539.356018,137.869247 
	C551.524170,142.475372 564.127502,143.805008 576.934570,143.003235 
	C586.340698,142.414368 595.822693,141.623062 605.028809,139.738922 
	C611.438843,138.427017 617.433350,135.096268 623.625793,132.699448 
	C624.997314,132.168610 626.420959,131.772644 627.986633,131.700989 
	C626.443604,133.057388 624.837830,134.339935 623.008057,134.944717 
	C613.691467,138.024109 604.316956,140.928131 594.962708,143.893524 
	C594.537598,143.925583 594.112488,143.957642 592.953369,144.046021 
	C581.793518,144.435150 571.367615,144.767975 560.941711,145.100800 
	C560.525635,145.020798 560.109558,144.940811 559.064331,144.633469 
	C553.922058,143.696472 549.408936,142.986832 544.895752,142.277191 
	C544.492249,142.168793 544.088684,142.060410 543.113953,141.692307 
	C538.689270,139.969330 534.835754,138.506058 530.982300,137.042801 
z"/>
<path fill="#6C6A60" opacity="1.000000" stroke="none" 
	d="
M442.176666,84.000015 
	C442.176636,100.888863 442.176636,117.277710 442.176636,133.666550 
	C441.673248,133.664169 441.169830,133.661774 440.666443,133.659378 
	C440.666443,108.838852 440.666443,84.018311 440.666443,59.197781 
	C441.169861,59.178913 441.673279,59.160046 442.176697,59.141178 
	C442.176697,67.260788 442.176697,75.380402 442.176666,84.000015 
z"/>
<path fill="#FDE4B6" opacity="1.000000" stroke="none" 
	d="
M595.226685,144.183884 
	C604.316956,140.928131 613.691467,138.024109 623.008057,134.944717 
	C624.837830,134.339935 626.443604,133.057388 628.364990,131.822815 
	C628.577271,131.558243 628.868591,131.432831 629.301636,131.317719 
	C630.173523,130.821060 630.612488,130.439514 631.030823,130.038208 
	C631.010254,130.018448 631.055725,130.065506 631.354370,130.041748 
	C632.099365,129.659378 632.545776,129.300751 633.307373,128.889832 
	C634.768005,127.956093 635.913513,127.074631 637.425964,126.166542 
	C638.522095,126.066231 639.251160,125.992561 639.980286,125.918884 
	C634.129700,133.175461 625.734924,136.660248 617.496460,139.718353 
	C610.532349,142.303421 602.853333,142.962677 595.226685,144.183884 
z"/>
<path fill="#FDE4B6" opacity="1.000000" stroke="none" 
	d="
M561.022095,145.472992 
	C571.367615,144.767975 581.793518,144.435150 592.649780,144.149780 
	C586.005981,147.875061 578.562317,149.927811 570.567627,148.583176 
	C567.350098,148.042007 564.253906,146.779449 561.022095,145.472992 
z"/>
<path fill="#FDE4B6" opacity="1.000000" stroke="none" 
	d="
M538.987244,128.408295 
	C527.716370,124.795799 516.339905,120.857040 504.432617,116.660271 
	C503.576172,115.967590 503.250519,115.532921 502.924866,115.098251 
	C505.087158,115.624092 507.307831,115.981308 509.401367,116.705833 
	C517.247314,119.421143 525.071838,122.202232 532.858459,125.082863 
	C534.949768,125.856552 536.878296,127.070312 538.987244,128.408295 
z"/>
<path fill="#2E363A" opacity="1.000000" stroke="none" 
	d="
M531.098877,92.253616 
	C533.757080,90.978210 536.472107,90.056389 539.486694,89.072098 
	C540.405396,90.312721 541.024414,91.615822 541.599548,92.826485 
	C536.293091,98.520966 535.091492,98.472069 531.098877,92.253616 
z"/>
<path fill="#FDE4B6" opacity="1.000000" stroke="none" 
	d="
M500.717834,119.459366 
	C501.511017,120.385574 502.304169,121.311783 503.205750,122.527512 
	C498.123871,122.752663 492.328979,118.024506 491.673279,112.936447 
	C491.534821,111.862083 492.608643,109.954880 493.547272,109.620750 
	C494.379364,109.324554 495.799896,110.681450 496.600464,111.704559 
	C495.792114,113.160286 494.710266,114.897881 494.999786,115.168556 
	C496.730438,116.786415 498.777130,118.066193 500.717834,119.459366 
z"/>
<path fill="#E4A63D" opacity="1.000000" stroke="none" 
	d="
M642.852539,109.910950 
	C646.907593,109.975410 650.962708,110.039871 655.421021,110.138046 
	C656.194763,112.165726 656.565186,114.159698 656.728088,116.832092 
	C655.393250,120.747719 654.265991,123.984924 653.089233,126.782448 
	C653.424255,124.084320 653.563904,121.748772 654.245728,119.584030 
	C655.530640,115.504898 654.282227,112.247803 650.181335,110.974701 
	C647.852722,110.251808 645.302795,110.241936 642.852539,109.910950 
z"/>
<path fill="#FCE5BD" opacity="1.000000" stroke="none" 
	d="
M653.138672,127.222122 
	C654.265991,123.984924 655.393250,120.747719 656.758545,117.229904 
	C656.995483,119.093277 657.564941,121.442032 656.882996,123.341606 
	C655.076233,128.374634 654.489807,134.306335 648.307495,136.561111 
	C649.043152,134.502625 650.078918,132.778793 651.201660,130.924744 
	C651.288574,130.794510 651.336243,130.484985 651.609985,130.323334 
	C652.214294,129.424957 652.544739,128.688232 652.963013,127.777100 
	C653.050903,127.602684 653.138672,127.222122 653.138672,127.222122 
z"/>
<path fill="#FDE4B6" opacity="1.000000" stroke="none" 
	d="
M568.744263,132.653442 
	C559.859558,131.802353 550.691650,130.694611 541.236267,129.334259 
	C543.755127,129.267578 546.580261,129.308060 549.363953,129.668762 
	C555.740417,130.495041 562.096558,131.477646 568.744263,132.653442 
z"/>
<path fill="#E4A63D" opacity="1.000000" stroke="none" 
	d="
M651.114746,131.054962 
	C650.078918,132.778793 649.043152,134.502625 647.952942,136.558746 
	C647.898499,136.891037 647.934204,136.911987 647.594849,136.948685 
	C646.189819,137.308548 645.124023,137.631699 644.058289,137.954849 
	C644.058289,137.954849 643.951477,137.484802 643.867432,137.258575 
	C645.229492,133.050720 646.675537,129.069092 648.486206,125.247818 
	C650.182617,127.059021 645.786499,131.006409 651.114746,131.054962 
z"/>
<path fill="#E2AA52" opacity="1.000000" stroke="none" 
	d="
M500.831543,119.060555 
	C498.777130,118.066193 496.730438,116.786415 494.999786,115.168556 
	C494.710266,114.897881 495.792114,113.160286 496.598450,112.080353 
	C497.440125,112.320267 497.923676,112.580345 498.881927,113.143112 
	C500.549011,113.990768 501.741425,114.535728 502.933807,115.080688 
	C502.933807,115.080696 502.957642,115.077728 502.941254,115.087990 
	C503.250519,115.532921 503.576172,115.967590 504.073273,116.616890 
	C503.144867,117.441597 502.045044,118.051666 500.831543,119.060555 
z"/>
<path fill="#FDE4B6" opacity="1.000000" stroke="none" 
	d="
M530.652649,137.023956 
	C534.835754,138.506058 538.689270,139.969330 542.799866,141.682678 
	C537.087585,144.854691 533.405212,140.194214 529.036133,137.347168 
	C529.445435,136.989456 529.884216,136.997284 530.652649,137.023956 
z"/>
<path fill="#FDE4B6" opacity="1.000000" stroke="none" 
	d="
M545.014282,142.604156 
	C549.408936,142.986832 553.922058,143.696472 558.745728,144.636658 
	C553.971558,147.411591 549.529297,145.335678 545.014282,142.604156 
z"/>
<path fill="#E8A53C" opacity="1.000000" stroke="none" 
	d="
M640.220825,125.755814 
	C639.251160,125.992561 638.522095,126.066231 637.510254,125.852509 
	C636.798218,124.325737 636.368774,123.086349 635.939331,121.846970 
	C638.159485,120.599289 640.285645,119.691750 641.246094,123.679893 
	C641.038025,124.576294 640.749695,125.084526 640.220825,125.755814 
z"/>
<path fill="#EAE5DB" opacity="1.000000" stroke="none" 
	d="
M275.002502,127.079681 
	C275.002533,124.517143 275.002533,122.415863 275.002533,120.314590 
	C275.333405,120.307846 275.664246,120.301102 275.995117,120.294365 
	C275.995117,122.922768 275.995148,125.551163 275.995148,128.179565 
	C275.995148,130.720764 275.995117,133.261948 275.995117,135.803146 
	C275.664215,135.798981 275.333344,135.794815 275.002441,135.790649 
	C275.002441,133.040756 275.002441,130.290848 275.002502,127.079681 
z"/>
<path fill="#FDE4B6" opacity="1.000000" stroke="none" 
	d="
M513.005127,129.416321 
	C515.371643,130.361252 517.789795,131.658005 520.384155,133.238861 
	C518.059143,132.271347 515.557922,131.019730 513.005127,129.416321 
z"/>
<path fill="#EAE5DB" opacity="1.000000" stroke="none" 
	d="
M275.996460,111.575104 
	C275.931976,112.932426 275.867676,113.880501 275.803375,114.828575 
	C275.625641,114.824448 275.447937,114.820320 275.270203,114.816193 
	C275.270203,111.320168 275.270203,107.824142 275.270203,104.328117 
	C275.512329,104.315498 275.754486,104.302887 275.996613,104.290268 
	C275.996613,106.582130 275.996613,108.874001 275.996460,111.575104 
z"/>
<path fill="#FDE4B6" opacity="1.000000" stroke="none" 
	d="
M502.918335,114.735886 
	C501.741425,114.535728 500.549011,113.990768 499.164185,113.172668 
	C500.282104,113.396713 501.592468,113.893890 502.918335,114.735886 
z"/>
<path fill="#FDE4B6" opacity="1.000000" stroke="none" 
	d="
M506.093262,125.190086 
	C507.390106,125.591789 508.705994,126.351418 510.123352,127.417572 
	C508.854004,126.998734 507.483154,126.273376 506.093262,125.190086 
z"/>
<path fill="#FCE5BD" opacity="1.000000" stroke="none" 
	d="
M644.080200,138.274475 
	C645.124023,137.631699 646.189819,137.308548 647.590393,136.944427 
	C647.349731,139.047424 646.560303,140.707550 644.080200,138.274475 
z"/>
<path fill="#FDE4B6" opacity="1.000000" stroke="none" 
	d="
M522.922363,134.604919 
	C523.814941,134.653809 524.743530,135.030563 525.857361,135.648315 
	C525.014465,135.570480 523.986450,135.251648 522.922363,134.604919 
z"/>
<path fill="#FDE4B6" opacity="1.000000" stroke="none" 
	d="
M510.238464,127.925392 
	C510.249084,127.729904 510.661407,127.738373 510.839905,127.841995 
	C510.754913,128.004044 510.491394,128.062454 510.238464,127.925392 
z"/>
<path fill="#FCE5BD" opacity="1.000000" stroke="none" 
	d="
M656.238770,109.904358 
	C656.072815,109.837036 656.053040,109.670807 656.019043,109.253922 
	C656.131531,109.270660 656.258179,109.538048 656.238770,109.904358 
z"/>
<path fill="#EEE9E1" opacity="1.000000" stroke="none" 
	d="
M243.075958,94.841705 
	C250.373215,95.389374 255.331085,98.544456 256.000671,102.797798 
	C257.480591,112.198502 255.914703,117.010696 250.474823,119.779579 
	C244.572571,122.783798 237.370773,121.552216 233.217056,116.556595 
	C230.024658,112.717133 229.036957,108.283943 230.951080,103.495560 
	C233.057068,98.227219 236.915741,95.242905 243.075958,94.841705 
z"/>
<path fill="#EAE7E3" opacity="1.000000" stroke="none" 
	d="
M509.035522,82.274467 
	C510.083527,76.871063 513.828552,75.248344 518.230286,75.120178 
	C521.964478,75.011459 525.720215,75.640388 529.333130,75.932152 
	C530.175903,84.889786 525.928040,90.290642 518.131714,90.934067 
	C512.159851,91.426926 509.519470,89.035355 509.035522,82.274467 
z"/>
<path fill="#ED9B1B" opacity="1.000000" stroke="none" 
	d="
M635.567261,121.883209 
	C636.368774,123.086349 636.798218,124.325737 637.143311,125.879150 
	C635.913513,127.074631 634.768005,127.956093 633.120972,128.683228 
	C632.098145,129.041107 631.576904,129.553299 631.055725,130.065491 
	C631.055725,130.065506 631.010254,130.018448 630.683167,130.009949 
	C629.890991,130.006714 629.425903,130.011978 628.960815,130.017242 
	C627.524841,128.999588 626.088867,127.981934 624.271729,126.930687 
	C627.658752,125.237869 631.426941,123.578659 635.567261,121.883209 
z"/>
<path fill="#E8A53C" opacity="1.000000" stroke="none" 
	d="
M628.988770,130.328110 
	C629.425903,130.011978 629.890991,130.006714 630.703735,130.029694 
	C630.612488,130.439514 630.173523,130.821060 629.432190,131.227753 
	C629.092102,131.048233 629.054382,130.843597 628.988770,130.328110 
z"/>
<path fill="#ED9B1B" opacity="1.000000" stroke="none" 
	d="
M623.123108,127.248489 
	C623.006104,127.114571 623.447998,126.937706 623.682434,126.897202 
	C623.691284,127.031929 623.465698,127.207169 623.123108,127.248489 
z"/>
<path fill="#D9275D" opacity="1.000000" stroke="none" 
	d="
M44.872005,136.668076 
	C44.623257,126.966309 44.065140,117.642174 44.471821,108.360306 
	C44.758457,101.818253 49.377312,98.451836 55.568607,98.905144 
	C60.956665,99.299637 64.295341,103.324081 64.331757,109.607834 
	C64.376167,117.271133 64.373489,124.934990 64.338867,132.598373 
	C64.310417,138.897919 61.725876,142.488388 56.441975,143.727203 
	C51.956024,144.778946 47.669827,142.288269 44.872005,136.668076 
z"/>
<path fill="#D42B5B" opacity="1.000000" stroke="none" 
	d="
M39.088951,111.327736 
	C36.289711,117.793694 31.892466,120.101341 26.525412,118.320160 
	C21.204069,116.554146 18.569101,112.072044 19.732512,106.765404 
	C21.300526,99.613258 26.074974,97.696304 39.143890,99.331245 
	C39.143890,103.119659 39.143890,107.009712 39.088951,111.327736 
z"/>
<path fill="#E8B33D" opacity="1.000000" stroke="none" 
	d="
M81.356949,143.418640 
	C72.098846,143.514130 66.001251,134.284744 69.518356,126.132195 
	C69.769867,125.549202 70.259705,124.599945 70.624954,124.606361 
	C75.158249,124.685883 79.892685,124.164658 84.157768,125.328423 
	C87.754257,126.309769 89.357712,129.909195 89.170525,134.100479 
	C88.943207,139.190491 86.412521,142.024124 81.356949,143.418640 
z"/>
<path fill="#F39A11" opacity="1.000000" stroke="none" 
	d="
M651.201660,130.924744 
	C645.786499,131.006409 650.182617,127.059021 648.742310,124.993591 
	C648.682861,124.223885 648.731873,123.868752 649.078979,123.120682 
	C649.297119,122.146187 649.217224,121.564644 649.137329,120.983101 
	C649.086182,119.940910 649.035034,118.898720 648.892273,117.222786 
	C648.530029,116.403900 648.259460,116.218765 647.988892,116.033630 
	C647.483887,115.809708 646.978882,115.585793 645.993835,114.930664 
	C643.296326,114.014740 641.039734,113.658112 638.875610,112.998520 
	C637.522583,112.586143 636.308716,111.717255 635.032410,111.053223 
	C637.367676,110.692223 639.702881,110.331223 642.445312,109.940582 
	C645.302795,110.241936 647.852722,110.251808 650.181335,110.974701 
	C654.282227,112.247803 655.530640,115.504898 654.245728,119.584030 
	C653.563904,121.748772 653.424255,124.084320 653.089233,126.782440 
	C653.138672,127.222122 653.050903,127.602684 652.627686,127.862183 
	C651.915100,128.909454 651.625671,129.697220 651.336243,130.484985 
	C651.336243,130.484985 651.288574,130.794510 651.201660,130.924744 
z"/>
<path fill="#E4A63D" opacity="1.000000" stroke="none" 
	d="
M634.656616,111.011810 
	C636.308716,111.717255 637.522583,112.586143 638.875610,112.998520 
	C641.039734,113.658112 643.296326,114.014740 645.750610,114.798126 
	C640.157715,115.096809 634.328064,115.096809 628.498352,115.096809 
	C628.360168,114.634445 628.221985,114.172081 628.083801,113.709709 
	C630.149475,112.796608 632.215088,111.883499 634.656616,111.011810 
z"/>
<path fill="#E4A63D" opacity="1.000000" stroke="none" 
	d="
M649.018250,121.304825 
	C649.217224,121.564644 649.297119,122.146187 649.151062,122.859634 
	C648.916443,122.536537 648.907837,122.081543 649.018250,121.304825 
z"/>
<path fill="#E4A63D" opacity="1.000000" stroke="none" 
	d="
M648.080688,116.260696 
	C648.259460,116.218765 648.530029,116.403900 648.870789,116.831924 
	C648.620300,116.963531 648.364136,116.767853 648.080688,116.260696 
z"/>
<path fill="#E8A53C" opacity="1.000000" stroke="none" 
	d="
M631.354370,130.041748 
	C631.576904,129.553299 632.098145,129.041107 632.805786,128.735519 
	C632.545776,129.300751 632.099365,129.659378 631.354370,130.041748 
z"/>
<path fill="#E4A63D" opacity="1.000000" stroke="none" 
	d="
M651.609985,130.323334 
	C651.625671,129.697220 651.915100,128.909454 652.539795,128.036606 
	C652.544739,128.688232 652.214294,129.424957 651.609985,130.323334 
z"/>
</svg>